<svg width="41" height="40" viewBox="0 0 41 40" fill="none" xmlns="http://www.w3.org/2000/svg">
<mask id="mask0_14518_17360" style="mask-type:alpha" maskUnits="userSpaceOnUse" x="0" y="0" width="41" height="40">
<rect x="0.5" width="40" height="40" fill="#D9D9D9"/>
</mask>
<g mask="url(#mask0_14518_17360)">
<path d="M15.9936 26.5061L20.4999 23.7724L25.0061 26.5061L23.8107 21.3811L27.8074 17.9357L22.5478 17.4936L20.4999 12.6603L18.452 17.4936L13.1924 17.9357L17.1891 21.3811L15.9936 26.5061ZM20.4999 37.6795L15.2691 32.4999H7.9999V25.2307L2.82031 19.9999L7.9999 14.7691V7.4999H15.2691L20.4999 2.32031L25.7307 7.4999H32.9999V14.7691L38.1795 19.9999L32.9999 25.2307V32.4999H25.7307L20.4999 37.6795ZM20.4999 34.1666L24.6666 29.9999H30.4999V24.1666L34.6666 19.9999L30.4999 15.8332V9.9999H24.6666L20.4999 5.83323L16.3332 9.9999H10.4999V15.8332L6.33323 19.9999L10.4999 24.1666V29.9999H16.3332L20.4999 34.1666Z" fill="#0500FF"/>
</g>
</svg>
