<svg xmlns="http://www.w3.org/2000/svg" style="display: none;">
  <!-- position-1 -->
  <symbol id="position-1" viewBox="0 0 194 195">
    <circle cx="97" cy="97" r="97" transform="matrix(1 0 0 -1 0 194.14)" fill="#EB001B"/>
    <path d="M96.5 49.1399C83.3832 49.1399 72.75 59.7731 72.75 72.8899C72.75 86.0067 83.3832 96.6399 96.5 96.6399H49C49 122.874 70.2665 144.14 96.5 144.14C122.734 144.14 144 122.874 144 96.6399H96.5C109.617 96.6399 120.25 86.0067 120.25 72.8899C120.25 59.7731 109.617 49.1399 96.5 49.1399Z" fill="white"/>
  </symbol>
  
  <!-- position-2 -->
  <symbol id="position-2" viewBox="0 0 194 195">
    <circle cx="97" cy="97" r="97" transform="matrix(1 0 0 -1 0 194.141)" fill="#EB001B"/>
    <path d="M124 76.8999C124 62.1228 111.912 50.1436 97 50.1436C82.0883 50.1436 70 62.1228 70 76.8999C70 91.677 82.0883 103.656 97 103.656C111.912 103.656 124 91.677 124 76.8999Z" fill="white"/>
    <path d="M124 116.896C124 131.588 124 151.57 124 151.57L70 151.57L70 116.093C70 101.759 81.7255 90.1397 96.19 90.1397C96.46 90.1397 96.73 90.1397 97 90.1397C111.912 90.1397 124 102.119 124 116.896Z" fill="white"/>
  </symbol>
  
  <!-- position-3 -->
  <symbol id="position-3" viewBox="0 0 194 194">
    <circle cx="97" cy="97" r="97" transform="matrix(1 0 0 -1 0 194)" fill="#EB001B"/>
    <g>
      <path fill-rule="evenodd" clip-rule="evenodd" d="M81.4034 145.807C81.4034 119.074 103.074 97.4034 129.807 97.4034C103.074 97.4034 81.4034 75.7325 81.4034 49C81.4034 75.7325 59.7325 97.4034 33 97.4034C59.7325 97.4034 81.4034 119.074 81.4034 145.807Z" fill="white"/>
    </g>
    <g>
      <path fill-rule="evenodd" clip-rule="evenodd" d="M112.595 145.807C112.595 119.074 134.266 97.4034 160.998 97.4034C134.266 97.4034 112.595 75.7325 112.595 49C112.595 75.7325 90.9239 97.4034 64.1914 97.4034C90.9239 97.4034 112.595 119.074 112.595 145.807Z" fill="white"/>
    </g>
  </symbol>
  
  <!-- position-4 -->
  <symbol id="position-4" viewBox="0 0 194 194">
    <circle cx="97" cy="97" r="97" transform="matrix(1 0 0 -1 0 194)" fill="#EB001B"/>
    <path d="M50 65.7821C50 53.7522 59.7522 44 71.7821 44C83.812 44 93.5642 53.7522 93.5642 65.7821V131.022C69.5337 131.022 50 111.542 50 87.5111V65.7821Z" fill="white"/>
    <path d="M100 63H100.924C124.955 63 144.435 82.4806 144.435 106.511V127.804C144.435 140.075 134.488 150.022 122.218 150.022C109.947 150.022 100 140.075 100 127.804V63Z" fill="white"/>
  </symbol>
</svg>