<svg width="22" height="22" viewBox="0 0 22 22" fill="current" xmlns="http://www.w3.org/2000/svg">
  <path
    d="M10.25 21.2V19.4692C8.16665 19.2551 6.41282 18.4358 4.98849 17.0115C3.56415 15.5872 2.7449 13.8333 2.53074 11.75H0.799988V10.25H2.53074C2.7449 8.16665 3.56415 6.41282 4.98849 4.98849C6.41282 3.56415 8.16665 2.7449 10.25 2.53074V0.799988H11.75V2.53074C13.8333 2.7449 15.5872 3.56415 17.0115 4.98849C18.4358 6.41282 19.2551 8.16665 19.4692 10.25H21.2V11.75H19.4692C19.2551 13.8333 18.4358 15.5872 17.0115 17.0115C15.5872 18.4358 13.8333 19.2551 11.75 19.4692V21.2H10.25ZM11 18C12.9333 18 14.5833 17.3167 15.95 15.95C17.3167 14.5833 18 12.9333 18 11C18 9.06665 17.3167 7.41665 15.95 6.04999C14.5833 4.68332 12.9333 3.99999 11 3.99999C9.06665 3.99999 7.41665 4.68332 6.04999 6.04999C4.68332 7.41665 3.99999 9.06665 3.99999 11C3.99999 12.9333 4.68332 14.5833 6.04999 15.95C7.41665 17.3167 9.06665 18 11 18ZM11 14.5C10.0375 14.5 9.21357 14.1572 8.52824 13.4717C7.84274 12.7864 7.49999 11.9625 7.49999 11C7.49999 10.0375 7.84274 9.21357 8.52824 8.52824C9.21357 7.84274 10.0375 7.49999 11 7.49999C11.9625 7.49999 12.7864 7.84274 13.4717 8.52824C14.1572 9.21357 14.5 10.0375 14.5 11C14.5 11.9625 14.1572 12.7864 13.4717 13.4717C12.7864 14.1572 11.9625 14.5 11 14.5ZM11 13C11.55 13 12.0208 12.8042 12.4125 12.4125C12.8042 12.0208 13 11.55 13 11C13 10.45 12.8042 9.97915 12.4125 9.58749C12.0208 9.19582 11.55 8.99999 11 8.99999C10.45 8.99999 9.97915 9.19582 9.58749 9.58749C9.19582 9.97915 8.99999 10.45 8.99999 11C8.99999 11.55 9.19582 12.0208 9.58749 12.4125C9.97915 12.8042 10.45 13 11 13Z" />
</svg>