<svg width="36" height="36" viewBox="0 0 36 36" fill="none" xmlns="http://www.w3.org/2000/svg">
<path d="M18.0125 34.5953C27.2227 34.5953 34.6891 27.1653 34.6891 18C34.6891 8.83473 27.2227 1.40479 18.0125 1.40479C8.8023 1.40479 1.33594 8.83473 1.33594 18C1.33594 27.1653 8.8023 34.5953 18.0125 34.5953Z" stroke="#0500FF" stroke-width="1.5" stroke-linecap="round" stroke-linejoin="round"/>
<path d="M13 11.4876C13 10.5164 13 10.0308 13.2025 9.76314C13.3789 9.52995 13.6485 9.38565 13.9404 9.36823C14.2754 9.34822 14.6795 9.61757 15.4875 10.1563L26.0031 17.1667C26.6708 17.6118 27.0046 17.8343 27.1209 18.1149C27.2227 18.3601 27.2227 18.6357 27.1209 18.881C27.0046 19.1615 26.6708 19.3841 26.0031 19.8292L15.4875 26.8396C14.6795 27.3783 14.2754 27.6476 13.9404 27.6276C13.6485 27.6102 13.3789 27.4659 13.2025 27.2327C13 26.965 13 26.4795 13 25.5083V11.4876Z" stroke="#0500FF" stroke-width="1.5" stroke-linecap="round" stroke-linejoin="round"/>
</svg>
