<svg width="194" height="195" viewBox="0 0 194 195" fill="none" xmlns="http://www.w3.org/2000/svg">
<circle cx="97" cy="97" r="97" transform="matrix(1 0 0 -1 0 194.141)" fill="#EB001B"/>
<path d="M124 76.8999C124 62.1228 111.912 50.1436 97 50.1436C82.0883 50.1436 70 62.1228 70 76.8999C70 91.677 82.0883 103.656 97 103.656C111.912 103.656 124 91.677 124 76.8999Z" fill="white"/>
<path d="M124 116.896C124 131.588 124 151.57 124 151.57L70 151.57L70 116.093C70 101.759 81.7255 90.1397 96.19 90.1397C96.46 90.1397 96.73 90.1397 97 90.1397C111.912 90.1397 124 102.119 124 116.896Z" fill="white"/>
</svg>
