<svg width="61" height="54" viewBox="0 0 61 54" fill="none" xmlns="http://www.w3.org/2000/svg">
<path d="M48.9899 53.1035C55.3449 53.1035 60.5 47.7002 60.5 41.0336C60.5 34.3711 55.3449 28.9638 48.9899 28.9638C37.4838 28.9638 45.1533 5.63267 60.5 5.63267L60.5 6.41921e-05C33.1103 -0.0039615 22.3779 53.1035 48.9899 53.1035ZM15.8334 53.1035C22.1845 53.1035 27.3395 47.7002 27.3395 41.0336C27.3395 34.3711 22.1845 28.9638 15.8334 28.9638C4.32335 28.9638 11.9928 5.63267 27.3395 5.63267L27.3395 6.12932e-05C-0.0462036 -0.00396439 -10.7787 53.1035 15.8334 53.1035Z" fill="#EB001B"/>
</svg>
