<svg width="30" height="30" viewBox="0 0 30 30" fill="none" xmlns="http://www.w3.org/2000/svg">
<mask id="mask0_11722_13907" style="mask-type:alpha" maskUnits="userSpaceOnUse" x="0" y="0" width="30" height="30">
<rect width="30" height="30" fill="#D9D9D9"/>
</mask>
<g mask="url(#mask0_11722_13907)">
<path d="M24.4282 25.7208L16.5772 17.8695C15.9522 18.3856 15.2335 18.7894 14.421 19.0811C13.6085 19.3728 12.768 19.5186 11.8994 19.5186C9.76297 19.5186 7.95485 18.7789 6.47506 17.2995C4.99527 15.8202 4.25537 14.0124 4.25537 11.8764C4.25537 9.74057 4.99506 7.93224 6.47443 6.45141C7.95381 4.97078 9.76152 4.23047 11.8976 4.23047C14.0334 4.23047 15.8417 4.97036 17.3226 6.45016C18.8032 7.92995 19.5435 9.73807 19.5435 11.8745C19.5435 12.7672 19.3937 13.6198 19.0941 14.4323C18.7943 15.2448 18.3944 15.9515 17.8944 16.5523L25.7454 24.4033L24.4282 25.7208ZM11.8994 17.6439C13.5101 17.6439 14.8742 17.0849 15.9919 15.967C17.1099 14.8493 17.6688 13.4852 17.6688 11.8745C17.6688 10.2639 17.1099 8.89974 15.9919 7.78203C14.8742 6.66411 13.5101 6.10516 11.8994 6.10516C10.2888 6.10516 8.92464 6.66411 7.80693 7.78203C6.68902 8.89974 6.13006 10.2639 6.13006 11.8745C6.13006 13.4852 6.68902 14.8493 7.80693 15.967C8.92464 17.0849 10.2888 17.6439 11.8994 17.6439Z" fill="white"/>
</g>
</svg>
