<svg width="47" height="68" viewBox="0 0 47 68" fill="none" xmlns="http://www.w3.org/2000/svg">
<path d="M23.2021 67.8789C18.7783 67.8789 14.8525 67.1318 11.4248 65.6377C7.99707 64.1143 5.28711 62.0049 3.29492 59.3096C1.30273 56.6143 0.248047 53.4941 0.130859 49.9492H10.0625C10.209 51.8828 10.8682 53.5527 12.04 54.959C13.2119 56.3652 14.75 57.4639 16.6543 58.2549C18.5879 59.0166 20.7412 59.3975 23.1143 59.3975C25.6924 59.3975 27.9775 58.9434 29.9697 58.0352C31.9619 57.127 33.5146 55.8818 34.6279 54.2998C35.7705 52.6885 36.3418 50.8281 36.3418 48.7188C36.3418 46.5215 35.7852 44.5879 34.6719 42.918C33.5586 41.2188 31.9326 39.9004 29.7939 38.9629C27.6553 38.0254 25.0771 37.5566 22.0596 37.5566H16.4785V29.4707H22.0596C24.4619 29.4707 26.5859 29.0312 28.4316 28.1523C30.2773 27.2734 31.7129 26.0576 32.7383 24.5049C33.793 22.9521 34.3203 21.1211 34.3203 19.0117C34.3203 16.9902 33.8662 15.2324 32.958 13.7383C32.0498 12.2148 30.7754 11.043 29.1348 10.2227C27.4941 9.37305 25.5605 8.94824 23.334 8.94824C21.1953 8.94824 19.2031 9.3291 17.3574 10.0908C15.5117 10.8525 14.0029 11.9512 12.8311 13.3867C11.6885 14.793 11.0879 16.5068 11.0293 18.5283H1.49316C1.58105 14.9834 2.60645 11.8779 4.56934 9.21191C6.56152 6.5166 9.19824 4.42188 12.4795 2.92773C15.79 1.4043 19.4521 0.642578 23.4658 0.642578C27.6553 0.642578 31.2734 1.46289 34.3203 3.10352C37.3965 4.71484 39.7695 6.88281 41.4395 9.60742C43.1094 12.3027 43.9443 15.2471 43.9443 18.4404C43.9443 22.1611 42.9189 25.2959 40.8682 27.8447C38.8174 30.3643 36.0781 32.0781 32.6504 32.9863V33.4697C36.9863 34.1436 40.3408 35.8721 42.7139 38.6553C45.1162 41.4385 46.3174 44.8955 46.3174 49.0264C46.3174 52.6299 45.3066 55.8525 43.2852 58.6943C41.293 61.5361 38.5537 63.7773 35.0674 65.418C31.6104 67.0586 27.6553 67.8789 23.2021 67.8789Z" fill="#0500FF"/>
</svg>
