<svg width="44" height="67" viewBox="0 0 44 67" fill="none" xmlns="http://www.w3.org/2000/svg">
<path d="M0.394531 67V59.8809L22.543 36.8535C24.8867 34.3926 26.8203 32.2246 28.3438 30.3496C29.8965 28.4453 31.0537 26.6436 31.8154 24.9443C32.6064 23.2451 33.002 21.4434 33.002 19.5391C33.002 17.3418 32.4893 15.4521 31.4639 13.8701C30.4385 12.2881 29.0469 11.0723 27.2891 10.2227C25.5312 9.37305 23.5391 8.94824 21.3125 8.94824C18.9688 8.94824 16.9326 9.43164 15.2041 10.3984C13.4756 11.3359 12.1279 12.6836 11.1611 14.4414C10.2236 16.1699 9.75488 18.2061 9.75488 20.5498H0.350586C0.350586 16.5654 1.25879 13.0791 3.0752 10.0908C4.9209 7.10254 7.44043 4.78809 10.6338 3.14746C13.8564 1.47754 17.4893 0.642578 21.5322 0.642578C25.6631 0.642578 29.2959 1.46289 32.4307 3.10352C35.5654 4.74414 38.0117 6.9707 39.7695 9.7832C41.5273 12.5664 42.4062 15.7158 42.4062 19.2314C42.4062 21.6631 41.9521 24.0361 41.0439 26.3506C40.165 28.665 38.5977 31.2578 36.3418 34.1289C34.1152 36.9707 31.0098 40.3984 27.0254 44.4121L14.0176 58.0352V58.5625H43.4609V67H0.394531Z" fill="#0500FF"/>
</svg>
