<svg width="31" height="31" viewBox="0 0 31 31" fill="none" xmlns="http://www.w3.org/2000/svg">
<g id="translate">
<mask id="mask0_11722_13911" style="mask-type:alpha" maskUnits="userSpaceOnUse" x="0" y="0" width="31" height="31">
<rect id="Bounding box" x="0.616211" y="0.431641" width="30" height="30" fill="#D9D9D9"/>
</mask>
<g mask="url(#mask0_11722_13911)">
<path id="translate_2" d="M15.4902 27.3062L21.0573 12.9312H23.0092L28.5767 27.3062H26.5886L25.173 23.4937H18.8939L17.478 27.3062H15.4902ZM5.62703 23.6284L4.30984 22.3109L10.5261 16.0827C9.80505 15.3536 9.11964 14.4882 8.46984 13.4865C7.81984 12.4848 7.28495 11.4664 6.86516 10.4312H8.85297C9.21359 11.1876 9.65234 11.9441 10.1692 12.7005C10.6861 13.4568 11.2442 14.145 11.8436 14.7652C12.7313 13.8694 13.571 12.7817 14.3627 11.5021C15.1543 10.2225 15.7137 9.03221 16.0408 7.93117H2.73047V6.05617H10.9277V4.03711H12.8027V6.05617H20.9998V7.93117H17.9395C17.5341 9.33492 16.888 10.8024 16.0011 12.3337C15.114 13.8649 14.1672 15.1274 13.1608 16.1212L16.2448 19.2796L15.5358 21.2052L11.8436 17.419L5.62703 23.6284ZM19.4948 21.8349H24.5717L22.0333 15.0152L19.4948 21.8349Z" fill="white"/>
</g>
</g>
</svg>
